<svg width="40" height="40" viewBox="0 0 40 40" fill="none" xmlns="http://www.w3.org/2000/svg">
<path d="M29.9515 6.91998C30.5799 6.91998 31.1819 6.36748 31.1528 5.71873C31.1237 5.06795 30.625 4.51749 29.9515 4.51749C29.3232 4.51749 28.7212 5.06999 28.7503 5.71873C28.7795 6.36959 29.2781 6.91998 29.9515 6.91998Z" fill="#E9E9E9"/>
<path d="M24.9757 6.91998C25.6041 6.91998 26.206 6.36748 26.177 5.71873C26.1478 5.06788 25.6491 4.51749 24.9757 4.51749C24.3473 4.51749 23.7454 5.06999 23.7744 5.71873C23.8037 6.36959 24.3023 6.91998 24.9757 6.91998Z" fill="#E9E9E9"/>
<path d="M29.9515 21.2012C30.5799 21.2012 31.1819 20.6487 31.1528 20C31.1237 19.3491 30.625 18.7987 29.9515 18.7987C29.3232 18.7987 28.7212 19.3512 28.7503 20C28.7795 20.6508 29.2781 21.2012 29.9515 21.2012Z" fill="#E9E9E9"/>
<path d="M24.9757 21.2012C25.6041 21.2012 26.206 20.6487 26.177 20C26.1478 19.3491 25.6491 18.7987 24.9757 18.7987C24.3473 18.7987 23.7454 19.3512 23.7744 20C23.8037 20.6508 24.3023 21.2012 24.9757 21.2012Z" fill="#E9E9E9"/>
<path d="M29.9515 35.4825C30.5799 35.4825 31.1819 34.93 31.1528 34.2812C31.1237 33.6304 30.625 33.08 29.9515 33.08C29.3232 33.08 28.7212 33.6325 28.7503 34.2812C28.7795 34.932 29.2781 35.4825 29.9515 35.4825Z" fill="#E9E9E9"/>
<path d="M24.9757 35.4825C25.6041 35.4825 26.206 34.93 26.177 34.2812C26.1478 33.6304 25.6491 33.08 24.9757 33.08C24.3473 33.08 23.7454 33.6325 23.7744 34.2812C23.8037 34.932 24.3023 35.4825 24.9757 35.4825Z" fill="#E9E9E9"/>
<path d="M34.6175 11.4375C35.2647 11.4375 35.7894 10.9128 35.7894 10.2656V1.17188C35.7894 0.524687 35.2647 0 34.6175 0H5.38281C4.73563 0 4.21094 0.524687 4.21094 1.17188V10.2656C4.21094 10.9128 4.73563 11.4375 5.38281 11.4375H6.37766V14.2812H5.38281C4.73563 14.2812 4.21094 14.8059 4.21094 15.4531V24.5469C4.21094 25.1941 4.73563 25.7188 5.38281 25.7188H6.37766V28.5625H5.38281C4.73563 28.5625 4.21094 29.0872 4.21094 29.7344V38.8281C4.21094 39.4753 4.73563 40 5.38281 40H34.6174C35.2646 40 35.7893 39.4753 35.7893 38.8281V29.7344C35.7893 29.0872 35.2646 28.5625 34.6174 28.5625H33.6226V25.7188H34.6174C35.2646 25.7188 35.7893 25.1941 35.7893 24.5469V15.4531C35.7893 14.8059 35.2646 14.2812 34.6174 14.2812H33.6226V11.4375H34.6175ZM33.4456 37.6562H6.55469V30.9062H33.4455V37.6562H33.4456ZM8.72149 28.5625V25.7202H31.2788V28.5625H8.72149ZM6.55469 2.34375H33.4455V9.09375H6.55469V2.34375ZM33.4456 16.625V23.375H6.55469V16.625H33.4456ZM31.2788 14.2812H8.72149V11.4375H31.2788V14.2812Z" fill="#E9E9E9"/>
<path d="M10.1563 6.89062H12.9532C13.6004 6.89062 14.1251 6.36593 14.1251 5.71875C14.1251 5.07156 13.6004 4.54688 12.9532 4.54688H10.1563C9.50906 4.54688 8.98438 5.07156 8.98438 5.71875C8.98438 6.36593 9.50906 6.89062 10.1563 6.89062Z" fill="#E9E9E9"/>
<path d="M10.1563 21.1719H12.9532C13.6004 21.1719 14.1251 20.6472 14.1251 20C14.1251 19.3528 13.6004 18.8281 12.9532 18.8281H10.1563C9.50906 18.8281 8.98438 19.3528 8.98438 20C8.98438 20.6472 9.50906 21.1719 10.1563 21.1719Z" fill="#E9E9E9"/>
<path d="M12.9532 33.1094H10.1563C9.50906 33.1094 8.98438 33.6341 8.98438 34.2812C8.98438 34.9284 9.50906 35.4531 10.1563 35.4531H12.9532C13.6004 35.4531 14.1251 34.9284 14.1251 34.2812C14.1251 33.6341 13.6004 33.1094 12.9532 33.1094Z" fill="#E9E9E9"/>
</svg>
