<svg width="40" height="40" viewBox="0 0 40 40" fill="none" xmlns="http://www.w3.org/2000/svg">
<path d="M4 2.30057C1.79086 2.30057 0 4.09143 0 6.30057V33.6995C0 35.9086 1.79086 37.6995 4 37.6995H36C38.2091 37.6995 40 35.9086 40 33.6995V6.30057C40 4.09143 38.2091 2.30057 36 2.30057H4ZM26.5157 4.64432L22.1058 9.9651H2.34375V4.64432H26.5157ZM37.6562 35.3557H2.34375V12.3088H23.2073L29.5598 4.64432H37.6562V35.3557Z" fill="#E9E9E9"/>
<path d="M5.02612 7.31451C5.02612 6.6673 5.55079 6.13611 6.198 6.13611C6.84521 6.13611 7.36987 6.6673 7.36987 7.31451C7.36987 7.96172 6.84521 8.49291 6.198 8.49291C5.55079 8.49291 5.02612 7.96172 5.02612 7.31451Z" fill="#E9E9E9"/>
<path d="M9.34888 7.31451C9.34888 6.6673 9.87354 6.13611 10.5208 6.13611C11.168 6.13611 11.6926 6.6673 11.6926 7.31451C11.6926 7.96172 11.168 8.49291 10.5208 8.49291C9.87354 8.49291 9.34888 7.96172 9.34888 7.31451Z" fill="#E9E9E9"/>
<path d="M13.6719 7.31451C13.6719 6.6673 14.1965 6.13611 14.8438 6.13611C15.491 6.13611 16.0156 6.6673 16.0156 7.31451C16.0156 7.96172 15.491 8.49291 14.8438 8.49291C14.1965 8.49291 13.6719 7.96172 13.6719 7.31451Z" fill="#E9E9E9"/>
<path d="M16.3281 25.4297C16.3281 26.5282 15.4345 27.4219 14.3359 27.4219C13.2374 27.4219 12.3438 26.5282 12.3438 25.4297V19.2969C12.3438 18.6497 11.8191 18.125 11.1719 18.125C10.5247 18.125 10 18.6497 10 19.2969V25.4297C10 27.8205 11.9451 29.7656 14.3359 29.7656C16.7268 29.7656 18.6719 27.8205 18.6719 25.4297V19.2969C18.6719 18.6497 18.1472 18.125 17.5 18.125C16.8528 18.125 16.3281 18.6497 16.3281 19.2969V25.4297Z" fill="#E9E9E9"/>
<path d="M27.5403 18.0859C27.1146 18.0859 26.7224 18.3168 26.5157 18.6889L24.9375 21.5312L23.3594 18.689C23.1528 18.3168 22.7606 18.0859 22.3349 18.0859C21.4414 18.0859 20.8766 19.0456 21.3103 19.8267L23.5971 23.9453L21.3103 28.0639C20.8766 28.845 21.4414 29.8047 22.3349 29.8047C22.7606 29.8047 23.1528 29.5738 23.3594 29.2017L24.9375 26.3595L26.5157 29.2017C26.7224 29.5739 27.1146 29.8047 27.5403 29.8047C28.4337 29.8047 28.9985 28.845 28.5648 28.0639L26.278 23.9453L28.5648 19.8267C28.9985 19.0456 28.4337 18.0859 27.5403 18.0859Z" fill="#E9E9E9"/>
</svg>
