<svg width="40" height="40" viewBox="0 0 40 40" fill="none" xmlns="http://www.w3.org/2000/svg">
<g clip-path="url(#clip0)">
<path d="M22.7718 40H17.2285C15.8752 40 14.7235 39.075 14.4268 37.7517L13.7235 34.63C12.5785 34.145 11.4885 33.5117 10.4668 32.74L7.43017 33.6983C6.12683 34.1 4.71017 33.5483 4.05683 32.385L1.2935 27.605C0.631832 26.4217 0.855166 24.9633 1.83017 24.0467L4.1835 21.8833C4.11183 21.25 4.07517 20.6183 4.07517 20C4.07517 19.3817 4.11017 18.75 4.18183 18.1167L1.84017 15.9633C0.855166 15.0367 0.630166 13.58 1.28517 12.4117L4.06517 7.60333C4.71183 6.45333 6.12683 5.89667 7.42683 6.30167L10.4668 7.26C11.4885 6.48833 12.5802 5.855 13.7235 5.37L14.4268 2.24667C14.7235 0.925 15.8752 0 17.2285 0H22.7718C24.1252 0 25.2768 0.925 25.5735 2.24833L26.2768 5.37C27.4218 5.855 28.5118 6.48833 29.5335 7.26L32.5702 6.30167C33.8702 5.895 35.2885 6.45167 35.9435 7.615L38.7068 12.395C39.3685 13.5783 39.1452 15.0367 38.1702 15.9533L35.8168 18.1167C35.8885 18.75 35.9235 19.3817 35.9235 20C35.9235 20.6183 35.8885 21.25 35.8168 21.8833L38.1602 24.0367C38.1635 24.04 38.1668 24.0433 38.1702 24.0467C39.1452 24.9633 39.3702 26.42 38.7152 27.5883L35.9352 32.3967C35.2868 33.5467 33.8718 34.1033 32.5735 33.6983L29.5318 32.7383C28.5102 33.51 27.4185 34.1433 26.2752 34.6283L25.5718 37.7517C25.2768 39.075 24.1252 40 22.7718 40ZM10.7235 30.0983C11.0102 30.0983 11.2918 30.1967 11.5202 30.3833C12.6618 31.325 13.9118 32.05 15.2335 32.5383C15.6302 32.685 15.9268 33.0233 16.0202 33.4367L16.8685 37.2033C16.9068 37.375 17.0602 37.5 17.2318 37.5H22.7752C22.9468 37.5 23.0985 37.375 23.1385 37.205L23.9868 33.4383C24.0802 33.025 24.3752 32.6867 24.7735 32.54C26.0952 32.0517 27.3452 31.325 28.4868 30.385C28.8135 30.115 29.2518 30.0283 29.6585 30.1567L33.3268 31.315C33.5002 31.3683 33.6868 31.3083 33.7685 31.16L36.5485 26.3533C36.6318 26.205 36.6018 26.0017 36.4668 25.8717L33.6535 23.285C33.3468 23.0033 33.2018 22.59 33.2652 22.1783C33.3752 21.445 33.4318 20.7117 33.4318 20C33.4318 19.2883 33.3768 18.5567 33.2652 17.8217C33.2035 17.41 33.3485 16.9967 33.6535 16.715L36.4735 14.1217C36.6002 14.0017 36.6335 13.7967 36.5402 13.6317L33.7768 8.85333C33.6868 8.695 33.5068 8.63333 33.3235 8.68667L29.6602 9.84333C29.2535 9.97167 28.8152 9.885 28.4885 9.615C27.3468 8.67333 26.0968 7.94833 24.7752 7.46C24.3785 7.31333 24.0818 6.975 23.9885 6.56167L23.1402 2.795C23.0952 2.625 22.9435 2.5 22.7718 2.5H17.2285C17.0568 2.5 16.9052 2.625 16.8652 2.795L16.0168 6.56333C15.9252 6.97667 15.6285 7.31333 15.2318 7.46167C13.9102 7.95 12.6602 8.675 11.5185 9.61667C11.1918 9.88667 10.7535 9.97167 10.3468 9.845L6.6785 8.68667C6.50517 8.63333 6.3185 8.695 6.23683 8.84167L3.45683 13.6467C3.37183 13.7967 3.40517 14.0017 3.54183 14.1317L6.3535 16.715C6.66017 16.9967 6.80517 17.41 6.74183 17.8217C6.63183 18.555 6.57517 19.2883 6.57517 20C6.57517 20.7117 6.63017 21.4433 6.74183 22.1783C6.8035 22.59 6.6585 23.0033 6.3535 23.285L3.5335 25.8783C3.40683 25.9983 3.3735 26.2033 3.46683 26.3683L6.23017 31.1467C6.32183 31.3067 6.5035 31.3717 6.6835 31.3133L10.3468 30.1567C10.4702 30.1167 10.5968 30.0983 10.7235 30.0983Z" fill="#E9E9E9"/>
<path d="M18.7517 26.6666C18.6567 26.6666 18.5634 26.6566 18.4684 26.6349C17.7967 26.4799 17.3767 25.8083 17.5317 25.1366L20.0317 14.3033C20.1867 13.6283 20.8667 13.2133 21.53 13.365C22.2017 13.52 22.6217 14.1916 22.4667 14.8633L19.9667 25.6966C19.8334 26.2766 19.32 26.6666 18.7517 26.6666Z" fill="#E9E9E9"/>
<path d="M25.4167 25C25.0751 25 24.7351 24.8617 24.4867 24.5867C24.0251 24.0734 24.0667 23.2834 24.5801 22.82L27.7151 20L24.5801 17.18C24.0667 16.7184 24.0251 15.9284 24.4867 15.4134C24.9501 14.9017 25.7401 14.86 26.2534 15.32L30.4201 19.07C30.6834 19.3084 30.8334 19.6467 30.8334 20C30.8334 20.3534 30.6834 20.6917 30.4201 20.93L26.2534 24.68C26.0134 24.895 25.7151 25 25.4167 25Z" fill="#E9E9E9"/>
<path d="M14.5834 24.9999C14.2851 24.9999 13.9867 24.8949 13.7467 24.6799L9.58008 20.9299C9.31675 20.6916 9.16675 20.3532 9.16675 19.9999C9.16675 19.6466 9.31675 19.3082 9.58008 19.0699L13.7467 15.3199C14.2601 14.8582 15.0484 14.8999 15.5134 15.4132C15.9751 15.9266 15.9334 16.7166 15.4201 17.1799L12.2851 19.9999L15.4201 22.8199C15.9334 23.2816 15.9751 24.0716 15.5134 24.5866C15.2651 24.8616 14.9251 24.9999 14.5834 24.9999Z" fill="#E9E9E9"/>
</g>
<defs>
<clipPath id="clip0">
<rect width="40" height="40" fill="white"/>
</clipPath>
</defs>
</svg>
