<svg width="40" height="40" viewBox="0 0 40 40" fill="none" xmlns="http://www.w3.org/2000/svg">
<path d="M15.6672 5.62255C15.6166 5.62255 15.565 5.61797 15.515 5.6079C15.4649 5.59753 15.4158 5.58288 15.3682 5.56335C15.3212 5.54382 15.276 5.5194 15.2336 5.49133C15.1909 5.46264 15.1509 5.4306 15.1149 5.39458C15.0789 5.35766 15.0462 5.31799 15.0181 5.27587C14.9901 5.23284 14.9656 5.18737 14.9461 5.14068C14.9266 5.09368 14.911 5.04455 14.9016 4.9945C14.8915 4.94384 14.886 4.89288 14.886 4.84222C14.886 4.79064 14.8915 4.73998 14.9016 4.68902C14.911 4.63897 14.9266 4.58984 14.9461 4.54284C14.9656 4.49615 14.9901 4.45068 15.0181 4.40795C15.0462 4.36553 15.0789 4.32495 15.1149 4.28893C15.1509 4.25323 15.1909 4.22027 15.2336 4.19219C15.276 4.16412 15.3212 4.1397 15.3682 4.12017C15.4158 4.10064 15.4649 4.08599 15.515 4.07592C15.7689 4.02496 16.0383 4.10766 16.2196 4.28893C16.2556 4.32495 16.2883 4.36553 16.3163 4.40795C16.3447 4.45068 16.3688 4.49615 16.3884 4.54284C16.4079 4.58984 16.4229 4.63897 16.4329 4.68902C16.443 4.73998 16.4485 4.79064 16.4485 4.84222C16.4485 4.89288 16.443 4.94384 16.4329 4.9945C16.4229 5.04455 16.4079 5.09368 16.3884 5.14068C16.3688 5.18737 16.3447 5.23284 16.3163 5.27587C16.2883 5.31799 16.2556 5.35766 16.2196 5.39458C16.0743 5.53985 15.8726 5.62255 15.6672 5.62255Z" fill="#E9E9E9"/>
<path d="M27.659 0H12.2925C10.3394 0 8.75 1.58905 8.75 3.54247V36.4574C8.75 38.4109 10.3394 39.9999 12.2925 39.9999H27.659C29.6121 39.9999 31.2014 38.4109 31.2014 36.4574V3.54247C31.2014 1.58905 29.6121 0 27.659 0ZM12.2925 1.5625H27.659C28.7506 1.5625 29.6389 2.45086 29.6389 3.54247V4.06066H19.4031C18.9715 4.06066 18.6218 4.41039 18.6218 4.84191C18.6218 5.27312 18.9715 5.62316 19.4031 5.62316H29.6389V33.5946H10.3125V5.62316H12.3718C12.8033 5.62316 13.1531 5.27312 13.1531 4.84191C13.1531 4.41039 12.8033 4.06066 12.3718 4.06066H10.3125V3.54247C10.3125 2.45086 11.2009 1.5625 12.2925 1.5625ZM29.6389 36.4574C29.6389 37.5491 28.7506 38.4374 27.659 38.4374H12.2925C11.2009 38.4374 10.3125 37.5491 10.3125 36.4574V35.1571H29.6389V36.4574Z" fill="#E9E9E9"/>
<path d="M18.3453 17.6263H12.832C12.4005 17.6263 12.0508 17.2766 12.0508 16.845V11.332C12.0508 10.9005 12.4005 10.5508 12.832 10.5508H18.3453C18.7769 10.5508 19.1266 10.9005 19.1266 11.332V16.845C19.1266 17.2766 18.7769 17.6263 18.3453 17.6263ZM13.6133 16.0638H17.5641V12.1133H13.6133V16.0638Z" fill="#E9E9E9"/>
<path d="M27.1193 17.6263H21.606C21.1744 17.6263 20.8247 17.2766 20.8247 16.845V11.332C20.8247 10.9005 21.1744 10.5508 21.606 10.5508H27.1193C27.5508 10.5508 27.9005 10.9005 27.9005 11.332V16.845C27.9005 17.2766 27.5508 17.6263 27.1193 17.6263ZM22.3872 16.0638H26.338V12.1133H22.3872V16.0638Z" fill="#E9E9E9"/>
<path d="M18.3453 26.3223H12.832C12.4005 26.3223 12.0508 25.9726 12.0508 25.541V20.0277C12.0508 19.5965 12.4005 19.2465 12.832 19.2465H18.3453C18.7769 19.2465 19.1266 19.5965 19.1266 20.0277V25.541C19.1266 25.9726 18.7769 26.3223 18.3453 26.3223ZM13.6133 24.7598H17.5641V20.809H13.6133V24.7598Z" fill="#E9E9E9"/>
<path d="M27.1193 26.3223H21.606C21.1744 26.3223 20.8247 25.9726 20.8247 25.541V20.0277C20.8247 19.5965 21.1744 19.2465 21.606 19.2465H27.1193C27.5508 19.2465 27.9005 19.5965 27.9005 20.0277V25.541C27.9005 25.9726 27.5508 26.3223 27.1193 26.3223ZM22.3872 24.7598H26.338V20.809H22.3872V24.7598Z" fill="#E9E9E9"/>
<path d="M20.9394 37.5784H19.0122C18.5807 37.5784 18.231 37.2286 18.231 36.7971C18.231 36.3656 18.5807 36.0159 19.0122 36.0159H20.9394C21.3709 36.0159 21.7206 36.3656 21.7206 36.7971C21.7206 37.2286 21.3709 37.5784 20.9394 37.5784Z" fill="#E9E9E9"/>
<path d="M22.5542 29.7656H17.3979C16.9664 29.7656 16.6167 29.4158 16.6167 28.9843C16.6167 28.5528 16.9664 28.2031 17.3979 28.2031H22.5542C22.9854 28.2031 23.3355 28.5528 23.3355 28.9843C23.3355 29.4158 22.9854 29.7656 22.5542 29.7656Z" fill="#E9E9E9"/>
</svg>
