<svg width="40" height="40" viewBox="0 0 40 40" fill="none" xmlns="http://www.w3.org/2000/svg">
<path d="M38.8281 34.0312H34.2517C33.7677 32.6671 32.4652 31.6875 30.9375 31.6875C29.4098 31.6875 28.1073 32.6671 27.6233 34.0312H23.3142C22.9605 33.0339 22.1692 32.2426 21.1719 31.8889V27.7812H31.7188C36.2421 27.7812 39.9219 24.1014 39.9219 19.5781C39.9219 17.5377 39.1678 15.5822 37.7982 14.0715C36.6891 12.8481 35.2515 11.9963 33.6707 11.61C33.5873 6.29657 29.2392 2 23.9062 2C20.8469 2 18.0347 3.39893 16.1917 5.79059C15.1736 5.35297 14.0771 5.125 12.9688 5.125C8.44543 5.125 4.76562 8.80481 4.76562 13.3281C4.76562 13.8079 4.80896 14.2867 4.89471 14.7612C2.10541 15.559 0.078125 18.1362 0.078125 21.1406C0.078125 24.8021 3.05725 27.7812 6.71875 27.7812H18.8281V31.8889C17.8308 32.2426 17.0395 33.0339 16.6858 34.0312H12.3767C11.8927 32.6671 10.5902 31.6875 9.0625 31.6875C7.53479 31.6875 6.2323 32.6671 5.74829 34.0312H1.17188C0.524597 34.0312 0 34.5558 0 35.2031C0 35.8504 0.524597 36.375 1.17188 36.375H5.74829C6.2323 37.7391 7.53479 38.7188 9.0625 38.7188C10.5902 38.7188 11.8927 37.7391 12.3767 36.375H16.6858C17.1698 37.7391 18.4723 38.7188 20 38.7188C21.5277 38.7188 22.8302 37.7391 23.3142 36.375H27.6233C28.1073 37.7391 29.4098 38.7188 30.9375 38.7188C32.4652 38.7188 33.7677 37.7391 34.2517 36.375H38.8281C39.4754 36.375 40 35.8504 40 35.2031C40 34.5558 39.4754 34.0312 38.8281 34.0312ZM2.42188 21.1406C2.42188 18.8893 4.18274 17.0089 6.43066 16.8596C6.79718 16.8352 7.13104 16.6405 7.33276 16.3332C7.53448 16.0259 7.58026 15.642 7.45636 15.2962C7.22626 14.6514 7.10938 13.9894 7.10938 13.3281C7.10938 10.0972 9.73785 7.46875 12.9688 7.46875C14.0207 7.46875 15.0592 7.75775 15.9717 8.30493L15.9821 8.30249C17.7643 9.37366 18.8281 11.2517 18.8281 13.3281C18.8281 13.9754 19.3527 14.5 20 14.5C20.6473 14.5 21.1719 13.9754 21.1719 13.3281C21.1719 10.8855 20.061 8.56647 18.2101 7.02075C19.6109 5.32794 21.6718 4.34375 23.9062 4.34375C27.9987 4.34375 31.3281 7.67322 31.3281 11.7656C31.3281 11.9866 31.3162 12.2188 31.2918 12.4758C31.2915 12.4797 31.2918 12.4834 31.2915 12.4874C31.1478 13.9507 30.5722 15.3499 29.632 16.4882C29.22 16.9872 29.2905 17.7257 29.7894 18.138C30.0079 18.3184 30.2722 18.4062 30.535 18.4062C30.8725 18.4062 31.2076 18.2613 31.4392 17.9805C32.4051 16.8111 33.0795 15.4326 33.4189 13.9684C35.8524 14.6981 37.5781 16.9451 37.5781 19.5781C37.5781 22.809 34.9496 25.4375 31.7188 25.4375H6.71875C4.34937 25.4375 2.42188 23.51 2.42188 21.1406ZM9.0625 36.375C8.41644 36.375 7.89062 35.8492 7.89062 35.2031C7.89062 34.5571 8.41644 34.0312 9.0625 34.0312C9.70856 34.0312 10.2344 34.5571 10.2344 35.2031C10.2344 35.8492 9.70856 36.375 9.0625 36.375ZM20 36.375C19.3539 36.375 18.8281 35.8492 18.8281 35.2031C18.8281 34.5571 19.3539 34.0312 20 34.0312C20.6461 34.0312 21.1719 34.5571 21.1719 35.2031C21.1719 35.8492 20.6461 36.375 20 36.375ZM30.9375 36.375C30.2914 36.375 29.7656 35.8492 29.7656 35.2031C29.7656 34.5571 30.2914 34.0312 30.9375 34.0312C31.5836 34.0312 32.1094 34.5571 32.1094 35.2031C32.1094 35.8492 31.5836 36.375 30.9375 36.375Z" fill="#E9E9E9"/>
</svg>
