<svg width="40" height="40" viewBox="0 0 40 40" fill="none" xmlns="http://www.w3.org/2000/svg">
<g clip-path="url(#clip0)">
<path d="M13.2569 29.8669V25.0096V23.6764H2.87707C2.76131 23.6764 2.6662 23.5821 2.6662 23.4655V5.2784C2.6662 5.16189 2.76123 5.06752 2.87707 5.06752H29.6761C29.7919 5.06752 29.887 5.16197 29.887 5.2784V14.4949H32.5532V5.2784C32.5532 3.69209 31.2629 2.40125 29.6761 2.40125H2.87707C1.29002 2.40133 0 3.69209 0 5.2784V23.4655C0 25.0519 1.29002 26.3426 2.87707 26.3426H11.8613V29.8668H10.4448C9.70795 29.8668 9.11174 30.4637 9.11174 31.1999C9.11174 31.9361 9.70803 32.5331 10.4448 32.5331H13.46C13.3402 32.1348 13.2569 31.7214 13.2569 31.2846V29.8669Z" fill="#E9E9E9"/>
<path d="M15.2563 18.881V31.2847C15.2563 32.6002 16.3264 33.6709 17.6426 33.6709H35.9196C37.2358 33.6709 38.3059 32.6001 38.3059 31.2847V18.881C38.3059 17.5654 37.2358 16.4946 35.9196 16.4946H17.6427C16.3265 16.4946 15.2563 17.5655 15.2563 18.881ZM17.9226 19.1609H35.6397V31.0047H17.9226V19.1609Z" fill="#E9E9E9"/>
<path d="M39.2868 35.0158H38.1957H15.3674H14.2778C13.8834 35.0158 13.5645 35.3354 13.5645 35.7292C13.5645 36.7616 14.4016 37.5987 15.4339 37.5987H38.1307C39.163 37.5987 40.0003 36.7616 40.0003 35.7292C40.0003 35.3353 39.6812 35.0158 39.2868 35.0158Z" fill="#E9E9E9"/>
</g>
<defs>
<clipPath id="clip0">
<rect width="40" height="40" fill="white"/>
</clipPath>
</defs>
</svg>
