<svg width="40" height="40" viewBox="0 0 40 40" fill="none" xmlns="http://www.w3.org/2000/svg">
<path d="M27.3762 8.1662L24.6296 9.75189C24.2747 9.50653 23.9027 9.29047 23.5157 9.10522V5.9375H16.4845V9.10522C16.0975 9.29047 15.7255 9.50653 15.3706 9.75189L12.624 8.1662L9.1084 14.2557L11.8281 15.8258C11.7878 16.2622 11.7854 16.6785 11.8281 17.1429L9.1084 18.7131L12.624 24.8022L15.3706 23.2166C15.7255 23.4622 16.0975 23.678 16.4845 23.8632V27.0312H23.5157V23.8635C23.9027 23.6783 24.2747 23.4622 24.6296 23.2169L27.3762 24.8026L30.8918 18.7131L28.1721 17.1429C28.2121 16.7078 28.2151 16.2915 28.1721 15.8258L30.8918 14.2557L27.3762 8.1662ZM25.5992 18.364L27.6902 19.5712L26.5184 21.6006L24.4069 20.3818C22.91 21.6589 22.8001 21.6769 21.172 22.2574V24.6875H18.8282V22.2574C16.9902 21.6022 16.9236 21.5167 15.5934 20.3818L13.4819 21.6006L12.31 19.5712L14.4014 18.364C14.0471 16.4508 14.0532 16.4847 14.4014 14.6048L12.31 13.3975L13.4819 11.3681L15.5934 12.587C17.108 11.2949 17.22 11.2848 18.8282 10.7114V8.28125H21.172V10.7114C22.9884 11.3589 23.061 11.4386 24.4069 12.587L26.5184 11.3678L27.6902 13.3975L25.5992 14.6048C25.9507 16.5039 25.9495 16.4722 25.5992 18.364Z" fill="#E9E9E9"/>
<path d="M20 12.9688C18.0615 12.9688 16.4844 14.5459 16.4844 16.4844C16.4844 18.4229 18.0615 20 20 20C21.9385 20 23.5156 18.4229 23.5156 16.4844C23.5156 14.5459 21.9385 12.9688 20 12.9688ZM20 17.6562C19.3539 17.6562 18.8281 17.1304 18.8281 16.4844C18.8281 15.8383 19.3539 15.3125 20 15.3125C20.6461 15.3125 21.1719 15.8383 21.1719 16.4844C21.1719 17.1304 20.6461 17.6562 20 17.6562Z" fill="#E9E9E9"/>
<path d="M31.7969 1.25H8.20312C3.67981 1.25 0 4.92981 0 9.45312V23.5156C0 27.641 3.06122 31.0651 7.03125 31.6354V38.75H9.22363L15.8682 31.7188H31.7969C36.3202 31.7188 40 28.0389 40 23.5156V9.45312C40 4.92981 36.3202 1.25 31.7969 1.25ZM37.6562 23.5156C37.6562 26.7465 35.0278 29.375 31.7969 29.375H14.8584L9.375 35.1773V29.375H8.20312C4.97223 29.375 2.34375 26.7465 2.34375 23.5156V9.45312C2.34375 6.22223 4.97223 3.59375 8.20312 3.59375H31.7969C35.0278 3.59375 37.6562 6.22223 37.6562 9.45312V23.5156Z" fill="#E9E9E9"/>
</svg>
