<svg width="16" height="16" viewBox="0 0 16 16" fill="none" xmlns="http://www.w3.org/2000/svg">
<path d="M8 8.66666C9.10457 8.66666 10 7.77123 10 6.66666C10 5.56209 9.10457 4.66666 8 4.66666C6.89543 4.66666 6 5.56209 6 6.66666C6 7.77123 6.89543 8.66666 8 8.66666Z" stroke="#399943" stroke-width="2" stroke-linecap="round" stroke-linejoin="round"/>
<path d="M8.00008 1.33333C6.58559 1.33333 5.22904 1.89523 4.22885 2.89543C3.22865 3.89562 2.66675 5.25217 2.66675 6.66666C2.66675 7.928 2.93475 8.75333 3.66675 9.66666L8.00008 14.6667L12.3334 9.66666C13.0654 8.75333 13.3334 7.928 13.3334 6.66666C13.3334 5.25217 12.7715 3.89562 11.7713 2.89543C10.7711 1.89523 9.41457 1.33333 8.00008 1.33333V1.33333Z" stroke="#399943" stroke-width="2" stroke-linecap="round" stroke-linejoin="round"/>
</svg>
