<svg width="40" height="40" viewBox="0 0 40 40" fill="none" xmlns="http://www.w3.org/2000/svg">
<path d="M13.4219 11.3281H7.17188C6.52469 11.3281 6 11.8528 6 12.5C6 13.1472 6.52469 13.6719 7.17188 13.6719H13.4219C14.0691 13.6719 14.5938 13.1472 14.5938 12.5C14.5938 11.8528 14.0691 11.3281 13.4219 11.3281Z" fill="#E9E9E9"/>
<path d="M13.4219 17.5781H7.17188C6.52469 17.5781 6 18.1028 6 18.75C6 19.3972 6.52469 19.9219 7.17188 19.9219H13.4219C14.0691 19.9219 14.5938 19.3972 14.5938 18.75C14.5938 18.1028 14.0691 17.5781 13.4219 17.5781Z" fill="#E9E9E9"/>
<path d="M13.4219 23.8281H7.17188C6.52469 23.8281 6 24.3528 6 25C6 25.6472 6.52469 26.1719 7.17188 26.1719H13.4219C14.0691 26.1719 14.5938 25.6472 14.5938 25C14.5938 24.3528 14.0691 23.8281 13.4219 23.8281Z" fill="#E9E9E9"/>
<path d="M30.2188 21.4788V10.7797C30.2188 9.23516 29.6232 7.77805 28.5418 6.67602L23.787 1.75891C23.7847 1.75656 23.7823 1.75414 23.7801 1.7518C22.6853 0.638516 21.162 0 19.6008 0H4.51562C2.57711 0 1 1.57711 1 3.51562V33.9062C1 35.8448 2.57711 37.4219 4.51562 37.4219H22.6276C24.2976 39.0182 26.5597 40 29.0469 40C34.2163 40 38.4219 35.8295 38.4219 30.7031C38.4219 25.9703 34.8371 22.0524 30.2188 21.4788ZM3.34375 33.9062V3.51562C3.34375 2.86945 3.86945 2.34375 4.51562 2.34375H19.6008C20.5362 2.34375 21.4491 2.72586 22.1059 3.39203L26.8599 8.30836C26.8622 8.3107 26.8645 8.31305 26.8666 8.31531C27.5169 8.9768 27.875 9.85195 27.875 10.7798V21.4799C23.2998 22.0579 19.75 25.9738 19.75 30.7032C19.75 32.2839 20.147 33.7735 20.8459 35.0782H4.51562C3.86945 35.0781 3.34375 34.5524 3.34375 33.9062ZM29.0469 37.6562C25.2129 37.6562 22.0938 34.5371 22.0938 30.7031C22.0938 26.8691 25.2129 23.75 29.0469 23.75C32.9239 23.75 36.0781 26.8691 36.0781 30.7031C36.0781 34.5371 32.9239 37.6562 29.0469 37.6562Z" fill="#E9E9E9"/>
<path d="M31.7502 27.9279C31.2531 27.5138 30.5141 27.5809 30.0998 28.078L28.1219 30.4515L27.6732 29.5541C27.3837 28.9752 26.6798 28.7405 26.1009 29.0301C25.522 29.3195 25.2874 30.0234 25.5769 30.6023L26.8269 33.1023C27.0037 33.456 27.3471 33.6967 27.7399 33.7423C27.7851 33.7474 27.8302 33.7501 27.8752 33.7501C28.2205 33.7501 28.5512 33.5973 28.7753 33.3284L31.9003 29.5784C32.3146 29.0811 32.2474 28.3422 31.7502 27.9279Z" fill="#E9E9E9"/>
<path d="M19.6719 13.6719H20.9219C21.5691 13.6719 22.0938 13.1472 22.0938 12.5C22.0938 11.8528 21.5691 11.3281 20.9219 11.3281H19.6719C19.0247 11.3281 18.5 11.8528 18.5 12.5C18.5 13.1472 19.0247 13.6719 19.6719 13.6719Z" fill="#E9E9E9"/>
<path d="M22.0938 18.75C22.0938 18.1028 21.5691 17.5781 20.9219 17.5781H19.6719C19.0247 17.5781 18.5 18.1028 18.5 18.75C18.5 19.3972 19.0247 19.9219 19.6719 19.9219H20.9219C21.5691 19.9219 22.0938 19.3972 22.0938 18.75Z" fill="#E9E9E9"/>
</svg>
