<svg width="40" height="40" viewBox="0 0 40 40" fill="none" xmlns="http://www.w3.org/2000/svg">
<path d="M4 2.30057C1.79086 2.30057 0 4.09143 0 6.30057V33.6995C0 35.9086 1.79086 37.6995 4 37.6995H36C38.2091 37.6995 40 35.9086 40 33.6995V6.30057C40 4.09143 38.2091 2.30057 36 2.30057H4ZM26.5157 4.64432L22.1058 9.9651H2.34375V4.64432H26.5157ZM37.6562 35.3557H2.34375V12.3088H23.2073L29.5598 4.64432H37.6562V35.3557Z" fill="#E9E9E9"/>
<path d="M5.02612 7.31451C5.02612 6.6673 5.55079 6.13611 6.198 6.13611C6.84521 6.13611 7.36987 6.6673 7.36987 7.31451C7.36987 7.96172 6.84521 8.49291 6.198 8.49291C5.55079 8.49291 5.02612 7.96172 5.02612 7.31451Z" fill="#E9E9E9"/>
<path d="M9.34888 7.31451C9.34888 6.6673 9.87354 6.13611 10.5208 6.13611C11.168 6.13611 11.6926 6.6673 11.6926 7.31451C11.6926 7.96172 11.168 8.49291 10.5208 8.49291C9.87354 8.49291 9.34888 7.96172 9.34888 7.31451Z" fill="#E9E9E9"/>
<path d="M13.6719 7.31451C13.6719 6.6673 14.1965 6.13611 14.8438 6.13611C15.491 6.13611 16.0156 6.6673 16.0156 7.31451C16.0156 7.96172 15.491 8.49291 14.8438 8.49291C14.1965 8.49291 13.6719 7.96172 13.6719 7.31451Z" fill="#E9E9E9"/>
<path d="M19.3281 25.4297C19.3281 26.5282 18.4345 27.4219 17.3359 27.4219C16.2374 27.4219 15.3438 26.5282 15.3438 25.4297V19.2969C15.3438 18.6497 14.8191 18.125 14.1719 18.125C13.5247 18.125 13 18.6497 13 19.2969V25.4297C13 27.8205 14.9451 29.7656 17.3359 29.7656C19.7268 29.7656 21.6719 27.8205 21.6719 25.4297V19.2969C21.6719 18.6497 21.1472 18.125 20.5 18.125C19.8528 18.125 19.3281 18.6497 19.3281 19.2969V25.4297Z" fill="#E9E9E9"/>
<path fill-rule="evenodd" clip-rule="evenodd" d="M25.5938 18C26.2841 18 26.8438 18.5596 26.8438 19.25V28.75C26.8438 29.4404 26.2841 30 25.5938 30C24.9034 30 24.3438 29.4404 24.3438 28.75V19.25C24.3438 18.5596 24.9034 18 25.5938 18Z" fill="#E9E9E9"/>
</svg>
